<svg width="43" height="45" viewBox="0 0 43 45" fill="none" xmlns="http://www.w3.org/2000/svg">
<g id="icone Fiabilit&#195;&#169;">
<g id="Clip path group">
<mask id="mask0_2583_1777" style="mask-type:luminance" maskUnits="userSpaceOnUse" x="0" y="0" width="43" height="45">
<g id="f8a4d8d40c">
<path id="Vector" d="M0.987793 0H42.8016V45H0.987793V0Z" fill="white"/>
</g>
</mask>
<g mask="url(#mask0_2583_1777)">
<g id="Group">
<path id="Vector_2" fill-rule="evenodd" clip-rule="evenodd" d="M21.7683 44.9965C21.7403 44.9965 21.6854 44.9965 21.6306 44.9965C7.9677 41.4668 3.27609 31.4825 1.76706 23.7118C0.120306 15.3352 1.73903 7.69575 1.73903 7.61606C1.84873 7.16841 2.23269 7.19536 2.50695 7.19536C13.7844 7.19536 21.3295 0.267236 21.3843 0.187549C21.6037 0.00356447 21.9329 0.00356447 22.1523 0.187549C22.4265 0.451221 29.8071 7.19536 41.2759 7.19536C41.5233 7.19536 41.7695 7.37935 41.7976 7.61606C41.8244 7.69575 43.4163 15.3352 41.7976 23.7118C40.2605 31.4825 35.5969 41.4668 21.906 44.9965C21.878 44.9965 21.8232 44.9965 21.7683 44.9965ZM2.72635 8.24888C2.4521 9.93403 1.46477 16.4672 2.86409 23.5278C4.97648 34.3547 11.3417 41.2032 21.7683 43.943C32.2217 41.2032 38.5869 34.3547 40.7005 23.5278C42.0999 16.4672 41.1113 9.93403 40.8102 8.24888C30.5482 8.16919 23.4699 2.74341 21.7683 1.2938C20.0947 2.74341 13.0152 8.16919 2.72635 8.24888Z" fill="white"/>
</g>
</g>
</g>
<path id="Vector_3" fill-rule="evenodd" clip-rule="evenodd" d="M21.6862 40.748C21.6314 40.748 21.5767 40.748 21.5487 40.7211C12.6187 38.117 7.14005 32.0133 5.3049 22.5413C4.59299 18.9108 4.40193 14.3064 4.84003 10.4652C4.8668 10.2288 5.08585 10.0181 5.33289 10.0181C11.0574 9.4926 16.6456 7.38706 21.3844 4.12517C21.5767 3.99408 21.8237 3.99408 22.0148 4.12517C26.7535 7.38706 32.3417 9.4926 38.0675 10.0181C38.3133 10.0181 38.5323 10.2288 38.5603 10.4652C38.9704 14.3064 38.8061 18.9108 38.0942 22.5413C36.2323 32.0133 30.7804 38.117 21.8505 40.7211C21.7957 40.748 21.7409 40.748 21.6862 40.748ZM5.88052 11.0188C5.52395 14.6494 5.71623 18.9634 6.37338 22.3318C8.12699 31.3287 13.3039 37.1701 21.6862 39.6689C30.0953 37.1701 35.2454 31.3287 37.0258 22.3318C37.6841 18.9634 37.8752 14.6494 37.5186 11.0188C31.8769 10.4125 26.425 8.36083 21.6862 5.20427C16.9742 8.36083 11.5235 10.4125 5.88052 11.0188Z" fill="white"/>
<path id="Vector_4" fill-rule="evenodd" clip-rule="evenodd" d="M21.6935 30.698C16.9404 30.698 13.0493 27.0707 13.0493 22.5807C13.0493 18.1185 16.9404 14.4634 21.6935 14.4634C26.475 14.4634 30.3377 18.1185 30.3377 22.5807C30.3377 27.0707 26.475 30.698 21.6935 30.698ZM21.6935 15.5084C17.5517 15.5084 14.1607 18.6921 14.1607 22.5807C14.1607 26.4959 17.5517 29.6542 21.6935 29.6542C25.8625 29.6542 29.2263 26.4959 29.2263 22.5807C29.2263 18.6921 25.8625 15.5084 21.6935 15.5084Z" fill="white"/>
<path id="Vector_5" fill-rule="evenodd" clip-rule="evenodd" d="M20.4308 26.4462C20.0465 26.4462 19.6621 26.315 19.3876 26.055L16.7226 23.4978C15.3218 22.1664 17.4645 20.236 18.8104 21.514L20.4308 23.0532L24.9627 18.7478C26.3367 17.4698 28.4513 19.4002 27.0773 20.7316L21.4741 26.055C21.1996 26.315 20.8433 26.4462 20.4308 26.4462ZM17.7671 22.1408C17.4365 22.1408 17.2717 22.532 17.4914 22.7665L20.1831 25.2982C20.321 25.4282 20.5687 25.4282 20.7054 25.2982L26.2817 20.0003C26.6661 19.6614 26.089 19.1657 25.7595 19.4791L20.8152 24.1757C20.6236 24.3846 20.2661 24.3846 20.0465 24.1757C19.717 23.8623 18.0966 22.1408 17.7671 22.1408Z" fill="white"/>
</g>
</svg>
