<svg width="26" height="25" viewBox="0 0 26 25" fill="none" xmlns="http://www.w3.org/2000/svg">
<g id="Group">
<path id="Vector" d="M10.1244 0.0870628C9.60176 0.256921 9.13776 0.800468 8.99611 1.42328C8.89843 1.8366 8.89843 2.73119 8.99611 2.94635C9.13287 3.25209 9.47477 3.37099 9.74828 3.2068C9.98273 3.06525 10.0169 2.96899 10.0462 2.33486C10.0804 1.69506 10.1293 1.53086 10.3344 1.4063C10.5053 1.29872 16.425 1.29872 16.5959 1.4063C16.8011 1.53086 16.8499 1.69506 16.8841 2.33486C16.9134 2.96899 16.9476 3.06525 17.1821 3.2068C17.4556 3.37099 17.7975 3.25209 17.9342 2.94635C18.0319 2.73119 18.0319 1.8366 17.9342 1.42328C17.7926 0.789144 17.3286 0.251259 16.7815 0.0870628C16.4055 -0.0318382 10.4907 -0.0261762 10.1244 0.0870628Z" fill="#343434"/>
<path id="Vector_2" d="M2.39722 4.6451C1.84042 4.74135 1.36176 5.16033 1.11755 5.76616L0.98568 6.08889L0.971027 8.54618C0.956375 10.8959 0.961259 11.0204 1.05894 11.3885C1.18593 11.8754 1.56202 12.3793 1.9381 12.5662C2.11393 12.6511 10.9983 15.0065 11.1497 15.0065C11.1546 15.0065 11.1693 15.533 11.179 16.1785C11.1937 17.4694 11.2083 17.5373 11.4916 17.6959C11.7212 17.8204 15.2085 17.8204 15.4381 17.6959C15.7214 17.5373 15.736 17.4694 15.7507 16.1785C15.7604 15.533 15.7751 15.0065 15.78 15.0065C15.9314 15.0065 24.8158 12.6511 24.9916 12.5662C25.3677 12.3793 25.7438 11.8754 25.8707 11.3885C25.9684 11.0204 25.9733 10.8959 25.9587 8.54618L25.944 6.08889L25.8121 5.7605C25.6363 5.33585 25.2651 4.91687 24.9086 4.74701L24.6253 4.61679L13.6358 4.61113C7.59402 4.60546 2.53398 4.62245 2.39722 4.6451ZM24.6057 6.06058C24.6839 6.12853 24.7669 6.26441 24.7962 6.38898C24.8695 6.69472 24.8548 10.7883 24.7816 11.0374C24.7474 11.145 24.6692 11.2752 24.6008 11.3319C24.5227 11.3998 22.9988 11.8188 20.1318 12.5605L15.7848 13.6872L15.7507 13.3475C15.7018 12.8776 15.6334 12.7077 15.443 12.6058C15.2036 12.4699 11.7261 12.4699 11.4867 12.6058C11.2963 12.7077 11.2279 12.8776 11.179 13.3475L11.1448 13.6872L6.79789 12.5605C3.93086 11.8188 2.40699 11.3998 2.32884 11.3319C2.26046 11.2752 2.18231 11.145 2.14812 11.0374C2.07486 10.794 2.06021 6.69472 2.13347 6.4003C2.15789 6.29272 2.24092 6.14551 2.31419 6.07757L2.45094 5.94734H13.4551C24.4641 5.94734 24.4641 5.94734 24.6057 6.06058ZM14.5882 15.148V16.4786H13.4648H12.3415V15.148V13.8175H13.4648H14.5882V15.148Z" fill="#343434"/>
<path id="Vector_3" d="M1.90413 13.8794C1.8211 13.9078 1.70388 14.004 1.64527 14.0946C1.54758 14.2588 1.54758 14.2814 1.55735 18.9242L1.57201 23.584L1.69899 23.9011C1.86506 24.3088 2.16788 24.6598 2.51954 24.8523L2.79306 24.9995H13.4651H24.1371L24.4106 24.8523C24.7623 24.6598 25.0651 24.3088 25.2311 23.9011L25.3581 23.584L25.3728 18.9242C25.3825 14.2928 25.3825 14.2588 25.2849 14.1003C25.1725 13.9134 24.9088 13.8058 24.6939 13.8568C24.5083 13.8964 24.3276 14.1116 24.2885 14.3324C24.2738 14.4343 24.2592 16.4783 24.2592 18.8789C24.2592 23.1028 24.2543 23.25 24.1615 23.4255C24.098 23.5444 24.0101 23.6237 23.8831 23.6633C23.6242 23.7482 3.3059 23.7482 3.04704 23.6633C2.67584 23.5444 2.70026 23.8501 2.67095 18.7714C2.64653 13.9927 2.65142 14.1059 2.43163 13.9474C2.29975 13.8511 2.07019 13.8228 1.90413 13.8794Z" fill="#343434"/>
</g>
</svg>
