<svg width="17" height="14" viewBox="0 0 17 14" fill="none" xmlns="http://www.w3.org/2000/svg">
<g id="Icon">
<path fill-rule="evenodd" clip-rule="evenodd" d="M9.81485 3.62963H0.728571C0.326193 3.62963 0 3.28141 0 2.85185C0 2.4223 0.326193 2.07407 0.728571 2.07407H9.81485C10.132 0.877072 11.1629 0 12.3857 0C13.6085 0 14.6394 0.877072 14.9566 2.07407H16.2714C16.6738 2.07407 17 2.4223 17 2.85185C17 3.28141 16.6738 3.62963 16.2714 3.62963H14.9566C14.6394 4.82663 13.6085 5.7037 12.3857 5.7037C11.1629 5.7037 10.132 4.82663 9.81485 3.62963ZM11.1714 2.85185C11.1714 2.13593 11.7151 1.55556 12.3857 1.55556C13.0563 1.55556 13.6 2.13593 13.6 2.85185C13.6 3.56778 13.0563 4.14815 12.3857 4.14815C11.7151 4.14815 11.1714 3.56778 11.1714 2.85185Z" fill="#FBFBFB"/>
<path fill-rule="evenodd" clip-rule="evenodd" d="M7.18516 11.9259H16.2714C16.6738 11.9259 17 11.5777 17 11.1481C17 10.7186 16.6738 10.3704 16.2714 10.3704H7.18516C6.86802 9.17337 5.8371 8.2963 4.61429 8.2963C3.39147 8.2963 2.36055 9.17337 2.04342 10.3704H0.728571C0.326193 10.3704 0 10.7186 0 11.1481C0 11.5777 0.326193 11.9259 0.728571 11.9259H2.04342C2.36055 13.1229 3.39147 14 4.61429 14C5.8371 14 6.86802 13.1229 7.18516 11.9259ZM3.4 11.1481C3.4 10.4322 3.94365 9.85185 4.61429 9.85185C5.28492 9.85185 5.82857 10.4322 5.82857 11.1481C5.82857 11.8641 5.28492 12.4444 4.61429 12.4444C3.94365 12.4444 3.4 11.8641 3.4 11.1481Z" fill="#FBFBFB"/>
</g>
</svg>
