<svg width="42" height="40" viewBox="0 0 42 40" fill="none" xmlns="http://www.w3.org/2000/svg">
<g id="Group 1000002036">
<g id="Clip path group">
<mask id="mask0_2583_2396" style="mask-type:luminance" maskUnits="userSpaceOnUse" x="0" y="0" width="42" height="40">
<g id="48a095451c">
<path id="Vector" d="M0.175293 0H41.9891V40H0.175293V0Z" fill="white"/>
</g>
</mask>
<g mask="url(#mask0_2583_2396)">
<g id="Group">
<path id="Vector_2" d="M41.9891 20C41.9891 18.0154 41.6827 16.047 41.0788 14.151C41.0788 14.151 41.0788 14.151 41.0788 14.1504C40.5438 12.4768 39.7782 10.8772 38.8057 9.39737C38.8057 9.39653 38.8057 9.39597 38.8048 9.39597C38.8048 9.39541 38.8042 9.39541 38.8033 9.39458C38.7969 9.38507 38.7919 9.37472 38.7855 9.36493C34.9356 3.50084 28.3174 0 21.0822 0C9.55387 0 0.175293 8.97176 0.175293 20C0.175293 23.0959 0.896452 26.0635 2.31802 28.8202C2.32298 28.8305 2.32942 28.8409 2.33526 28.8512C2.33614 28.8518 2.33526 28.8526 2.33614 28.8532C2.33672 28.854 2.3376 28.8546 2.3376 28.8551C3.09442 30.3319 4.05266 31.7215 5.18599 32.9863C9.17122 37.4435 14.9653 40 21.0822 40C23.0901 40 25.03 39.722 26.8693 39.2145C26.8944 39.2078 26.9196 39.2041 26.9441 39.1946C35.627 36.7634 41.9891 29.0814 41.9891 20ZM5.91621 31.656C5.15851 30.7581 4.49435 29.7995 3.93222 28.7919L24.7099 17.7069C24.7584 18.9779 25.0034 20.2173 25.441 21.4077L5.91621 31.656ZM37.9103 10.6622C38.5598 11.729 39.096 12.8551 39.5108 14.0263L36.0213 15.8546C35.6968 14.6284 34.9444 13.5601 33.8809 12.8098L37.9103 10.6622ZM32.1472 13.4276C33.6617 14.0456 34.6623 15.4007 34.7596 16.965C34.7596 16.9726 34.762 16.9801 34.7626 16.9877C34.7634 16.9924 34.764 16.9975 34.7649 17.0022C34.767 17.0215 34.7684 17.0414 34.7728 17.0607C34.7851 17.1194 34.7798 17.1829 34.7798 17.2416C34.7798 17.847 34.7301 18.4242 34.6407 18.9726C34.6293 19.0456 34.6111 19.1133 34.5974 19.1848C34.5609 19.3828 34.5246 19.5822 34.4784 19.7718C34.47 19.8076 34.4583 19.84 34.4489 19.8758C34.3273 20.3551 34.1794 20.8112 34.0072 21.2388C33.968 21.3353 33.9242 21.4256 33.883 21.5201C33.8268 21.649 33.7728 21.7808 33.7137 21.9049C33.6479 22.0422 33.5766 22.1711 33.5073 22.3023C33.4685 22.3758 33.431 22.4547 33.3907 22.5263C32.3872 24.3207 31.0995 25.4994 30.4529 26.0215C29.9714 25.6345 29.1357 24.8862 28.3291 23.7973C27.8445 23.1435 27.3709 22.3669 26.9903 21.4718C26.4185 20.1284 26.1288 18.705 26.1288 17.2416C26.1288 17.0305 26.1467 16.8249 26.1858 16.6119C26.5007 14.5789 28.2958 13.1035 30.4543 13.1035C31.0375 13.1035 31.6093 13.2131 32.1472 13.4276ZM19.8056 25.9388C19.8229 25.96 19.8307 25.9857 19.8518 26.005L30.5645 36.2531C29.4075 36.8739 28.1792 37.387 26.8924 37.7732L16.9543 27.4354L19.8056 25.9388ZM31.7967 35.5352C31.7642 35.4793 31.7347 35.4223 31.685 35.3747L21.1067 25.2553L25.9833 22.6952C27.5352 25.7905 29.9375 27.394 30.0462 27.465C30.1696 27.5456 30.3117 27.5864 30.4543 27.5864C30.597 27.5864 30.739 27.5456 30.8615 27.4656C31.0802 27.323 36.1742 23.9007 36.2175 17.3235L39.9273 15.3795C40.331 16.8884 40.5473 18.4374 40.5473 20C40.5473 26.4829 37.0646 32.1994 31.7967 35.5352ZM21.0822 1.37947C27.5627 1.37947 33.5047 4.40213 37.1394 9.49329L32.3641 12.038C31.747 11.8339 31.1074 11.7243 30.4543 11.7243C27.7407 11.7243 25.384 13.5752 24.8298 16.0635L3.29554 27.5517C2.18618 25.1725 1.61732 22.6373 1.61732 20C1.61732 9.73238 10.349 1.37947 21.0822 1.37947ZM6.87941 32.7229L15.6523 28.118L25.3171 38.1711C23.9522 38.4628 22.5365 38.6208 21.0822 38.6208C15.6847 38.6208 10.5603 36.4801 6.87941 32.7229Z" fill="white"/>
</g>
</g>
</g>
<path id="Vector_3" d="M28.2915 17.2417C28.2915 18.3823 29.262 19.3105 30.4544 19.3105C31.6468 19.3105 32.6173 18.3823 32.6173 17.2417C32.6173 16.1007 31.6468 15.1726 30.4544 15.1726C29.262 15.1726 28.2915 16.1007 28.2915 17.2417ZM31.1753 17.2417C31.1753 17.6214 30.8517 17.9313 30.4544 17.9313C30.0571 17.9313 29.7335 17.6214 29.7335 17.2417C29.7335 16.8616 30.0571 16.5518 30.4544 16.5518C30.8517 16.5518 31.1753 16.8616 31.1753 17.2417Z" fill="white"/>
</g>
</svg>
