<svg width="18" height="9" viewBox="0 0 18 9" fill="none" xmlns="http://www.w3.org/2000/svg">
<path id="Vector" d="M1.51763 0.268468C1.43176 0.191445 1.33074 0.13123 1.22035 0.0912628C1.10996 0.0512943 0.992358 0.0323534 0.874255 0.0355253C0.756153 0.0386963 0.639865 0.0639153 0.532031 0.109743C0.424197 0.155571 0.326929 0.22111 0.24578 0.302618C0.164631 0.384126 0.101191 0.480007 0.059082 0.584785C0.0169728 0.689565 -0.00298116 0.801189 0.000359791 0.913288C0.00370074 1.02539 0.030271 1.13576 0.0785535 1.23811C0.126836 1.34047 0.195885 1.43279 0.281759 1.50981L8.37701 8.76664C8.54401 8.9165 8.76512 9 8.99494 9C9.22477 9 9.44588 8.9165 9.61288 8.76664L17.709 1.50981C17.7968 1.4333 17.8676 1.34099 17.9175 1.23827C17.9674 1.13554 17.9952 1.02443 17.9994 0.911402C18.0037 0.79837 17.9842 0.685667 17.9421 0.57984C17.9001 0.474012 17.8363 0.37717 17.7545 0.294937C17.6727 0.212704 17.5745 0.146719 17.4656 0.100817C17.3567 0.0549145 17.2392 0.0300083 17.1201 0.0275459C17.001 0.0250835 16.8825 0.0451126 16.7716 0.0864716C16.6607 0.127831 16.5596 0.189693 16.4741 0.268468L8.99494 6.97207L1.51763 0.268468Z" fill="#524D4D"/>
</svg>
